<svg width="640" height="180" viewBox="0 0 640 180" fill="none" xmlns="http://www.w3.org/2000/svg" role="img" aria-labelledby="title desc">
  <title id="title">Chaman Tent House</title>
  <desc id="desc">Modern Chaman Tent House logo with a gradient tent mark.</desc>
  <defs>
    <linearGradient id="brandGradient" x1="36" y1="28" x2="235" y2="151" gradientUnits="userSpaceOnUse">
      <stop stop-color="#2563EB"/>
      <stop offset="0.52" stop-color="#7C3AED"/>
      <stop offset="1" stop-color="#DB2777"/>
    </linearGradient>
    <linearGradient id="goldGradient" x1="54" y1="53" x2="163" y2="137" gradientUnits="userSpaceOnUse">
      <stop stop-color="#FDE047"/>
      <stop offset="1" stop-color="#F59E0B"/>
    </linearGradient>
    <filter id="softShadow" x="0" y="0" width="260" height="180" filterUnits="userSpaceOnUse" color-interpolation-filters="sRGB">
      <feFlood flood-opacity="0" result="BackgroundImageFix"/>
      <feColorMatrix in="SourceAlpha" type="matrix" values="0 0 0 0 0 0 0 0 0 0 0 0 0 0 0 0 0 0 127 0" result="hardAlpha"/>
      <feOffset dy="10"/>
      <feGaussianBlur stdDeviation="12"/>
      <feComposite in2="hardAlpha" operator="out"/>
      <feColorMatrix type="matrix" values="0 0 0 0 0.126 0 0 0 0 0.094 0 0 0 0 0.317 0 0 0 0.24 0"/>
      <feBlend mode="normal" in2="BackgroundImageFix" result="effect1_dropShadow"/>
      <feBlend mode="normal" in="SourceGraphic" in2="effect1_dropShadow" result="shape"/>
    </filter>
  </defs>

  <rect width="640" height="180" rx="34" fill="white"/>

  <g filter="url(#softShadow)">
    <rect x="28" y="24" width="132" height="132" rx="32" fill="url(#brandGradient)"/>
    <path d="M94 46L139 132H49L94 46Z" fill="white"/>
    <path d="M94 46L94 132" stroke="#DBEAFE" stroke-width="5" stroke-linecap="round"/>
    <path d="M63 132C68 100 78 76 94 46C110 76 120 100 125 132" stroke="url(#goldGradient)" stroke-width="7" stroke-linecap="round"/>
    <path d="M46 132H142" stroke="#FDE047" stroke-width="8" stroke-linecap="round"/>
    <circle cx="94" cy="46" r="7" fill="#FDE047"/>
  </g>

  <path d="M188 48H590" stroke="#E0E7FF" stroke-width="2" stroke-linecap="round"/>
  <text x="188" y="102" fill="#0F172A" font-family="Inter, Arial, sans-serif" font-size="58" font-weight="900" letter-spacing="0">
    Chaman
  </text>
  <text x="190" y="139" fill="#2563EB" font-family="Inter, Arial, sans-serif" font-size="28" font-weight="900" letter-spacing="9">
    TENT HOUSE
  </text>
  <path d="M483 123H590" stroke="url(#brandGradient)" stroke-width="6" stroke-linecap="round"/>
  <circle cx="607" cy="123" r="8" fill="#FDE047"/>
</svg>
